<?xml version="1.0" encoding="UTF-8" standalone="no"?>
<!DOCTYPE svg PUBLIC "-//W3C//DTD SVG 1.1//EN" "http://www.w3.org/Graphics/SVG/1.1/DTD/svg11.dtd">
<svg width="100%" height="100%" viewBox="0 0 1024 1024" version="1.1" xmlns="http://www.w3.org/2000/svg" xmlns:xlink="http://www.w3.org/1999/xlink" xml:space="preserve" xmlns:serif="http://www.serif.com/" style="fill-rule:evenodd;clip-rule:evenodd;stroke-linejoin:round;stroke-miterlimit:2;">
    <g transform="matrix(1.2381,0,0,-1.2381,16.7619,1007.24)">
        <path d="M400,64C214.557,64 64,214.557 64,400C64,585.443 214.557,736 400,736C585.443,736 736,585.443 736,400C736,214.557 585.443,64 400,64ZM399.9,526C428.43,526 451.593,549.163 451.593,577.692C451.593,606.222 428.43,629.385 399.9,629.385C371.371,629.385 348.208,606.222 348.208,577.692C348.208,549.163 371.371,526 399.9,526ZM348.609,429.077L348.407,429.077L348.407,226.871C348.275,225.367 348.208,223.845 348.208,222.308C348.208,193.778 371.371,170.615 399.9,170.615C427.345,170.615 449.823,192.05 451.493,219.077L451.593,219.077L451.593,429.077L451.192,429.077C451.457,431.194 451.593,433.35 451.593,435.538C451.593,464.068 428.43,487.231 399.9,487.231C371.371,487.231 348.208,464.068 348.208,435.538C348.208,433.35 348.344,431.194 348.609,429.077Z"/>
    </g>
</svg>
